<svg width="112" height="117" viewBox="0 0 112 117" fill="none" xmlns="http://www.w3.org/2000/svg">
<path d="M0.949707 40.4998C0.949707 36.0263 4.5762 32.3998 9.04971 32.3998C13.5232 32.3998 17.1497 36.0263 17.1497 40.4998V75.5998C17.1497 80.0733 13.5232 83.6998 9.04971 83.6998C4.5762 83.6998 0.949707 80.0733 0.949707 75.5998V40.4998Z" fill="url(#paint0_linear_270_843)"/>
<path d="M19.8497 29.6998C19.8497 25.2263 23.4762 21.5998 27.9497 21.5998C32.4232 21.5998 36.0497 25.2263 36.0497 29.6998V86.3998C36.0497 90.8733 32.4232 94.4998 27.9497 94.4998C23.4762 94.4998 19.8497 90.8733 19.8497 86.3998V29.6998Z" fill="url(#paint1_linear_270_843)"/>
<path d="M38.7497 18.8998C38.7497 14.4263 42.3762 10.7998 46.8497 10.7998C51.3232 10.7998 54.9497 14.4263 54.9497 18.8998V97.1998C54.9497 101.673 51.3232 105.3 46.8497 105.3C42.3762 105.3 38.7497 101.673 38.7497 97.1998V18.8998Z" fill="url(#paint2_linear_270_843)"/>
<path d="M57.6497 8.0998C57.6497 3.62629 61.2762 -0.000198364 65.7497 -0.000198364C70.2232 -0.000198364 73.8497 3.6263 73.8497 8.0998V108C73.8497 112.473 70.2232 116.1 65.7497 116.1C61.2762 116.1 57.6497 112.473 57.6497 108V8.0998Z" fill="url(#paint3_linear_270_843)"/>
<path d="M76.5497 45.8998C76.5497 41.4263 80.1762 37.7998 84.6497 37.7998C89.1232 37.7998 92.7497 41.4263 92.7497 45.8998V70.1998C92.7497 74.6733 89.1232 78.2998 84.6497 78.2998C80.1762 78.2998 76.5497 74.6733 76.5497 70.1998V45.8998Z" fill="url(#paint4_linear_270_843)"/>
<path d="M95.4497 56.6998C95.4497 52.2263 99.0762 48.5998 103.55 48.5998C108.023 48.5998 111.65 52.2263 111.65 56.6998V59.3998C111.65 63.8733 108.023 67.4998 103.55 67.4998C99.0762 67.4998 95.4497 63.8733 95.4497 59.3998V56.6998Z" fill="url(#paint5_linear_270_843)"/>
<defs>
<linearGradient id="paint0_linear_270_843" x1="17.3997" y1="45.7998" x2="64.5583" y2="12.9501" gradientUnits="userSpaceOnUse">
<stop stop-color="#B5179E"/>
<stop offset="1" stop-color="#E08CD3"/>
</linearGradient>
<linearGradient id="paint1_linear_270_843" x1="17.3997" y1="45.7998" x2="64.5583" y2="12.9501" gradientUnits="userSpaceOnUse">
<stop stop-color="#B5179E"/>
<stop offset="1" stop-color="#E08CD3"/>
</linearGradient>
<linearGradient id="paint2_linear_270_843" x1="17.3997" y1="45.7998" x2="64.5583" y2="12.9501" gradientUnits="userSpaceOnUse">
<stop stop-color="#B5179E"/>
<stop offset="1" stop-color="#E08CD3"/>
</linearGradient>
<linearGradient id="paint3_linear_270_843" x1="17.3997" y1="45.7998" x2="64.5583" y2="12.9501" gradientUnits="userSpaceOnUse">
<stop stop-color="#B5179E"/>
<stop offset="1" stop-color="#E08CD3"/>
</linearGradient>
<linearGradient id="paint4_linear_270_843" x1="17.3997" y1="45.7998" x2="64.5583" y2="12.9501" gradientUnits="userSpaceOnUse">
<stop stop-color="#B5179E"/>
<stop offset="1" stop-color="#E08CD3"/>
</linearGradient>
<linearGradient id="paint5_linear_270_843" x1="17.3997" y1="45.7998" x2="64.5583" y2="12.9501" gradientUnits="userSpaceOnUse">
<stop stop-color="#B5179E"/>
<stop offset="1" stop-color="#E08CD3"/>
</linearGradient>
</defs>
</svg>
